<svg width="383" height="142" viewBox="0 0 383 142" fill="none" xmlns="http://www.w3.org/2000/svg">
<g clip-path="url(#clip0_58_4)">
<mask id="mask0_58_4" style="mask-type:luminance" maskUnits="userSpaceOnUse" x="0" y="0" width="383" height="142">
<path d="M383 0H0V142H383V0Z" fill="white"/>
</mask>
<g mask="url(#mask0_58_4)">
<path fill-rule="evenodd" clip-rule="evenodd" d="M0 31.6594L31.7623 0H43.6668H65.1759H186.74V31.4742H63.164L47.4303 46.8454H138.407H164.039H167.393H186.74V66.6294V77.1053L147.439 117.113H146.757L146.592 117.274L146.435 117.113H5.58711e-06V86.3711H123.581L139.314 71H43.9388H22.7059H16.4218H0L5.58711e-06 54.2072L0 31.6594Z" fill="#F0D64E"/>
<path fill-rule="evenodd" clip-rule="evenodd" d="M194.795 85.615L226.558 117.274H238.463H381.535V85.8002H257.96L242.226 70.4289H333.203H358.834H362.188H381.535V50.6449V40.1691L342.234 0.160853H341.553L341.388 0L341.23 0.160853H194.795V30.9032H318.376L334.109 46.2743H238.734H217.502H211.217H194.795V63.067V85.615Z" fill="#F0D64E"/>
<path d="M7.44469 135.622V135.772H5.59961V135.747C5.59961 135.558 5.56099 135.429 5.48376 135.361C5.40223 135.279 5.26492 135.215 5.08041 135.177C4.84013 135.125 4.46252 135.099 3.94761 135.095H3.86609C3.35547 135.099 2.98645 135.129 2.75045 135.185C2.3986 135.275 2.23983 135.438 2.27416 135.682C2.29562 135.816 2.37285 135.906 2.51016 135.945C2.65176 135.983 2.72041 135.996 2.87489 136.017L3.92616 136.081C4.32521 136.086 4.65561 136.099 4.92165 136.12C5.19197 136.141 5.4623 136.176 5.73263 136.223C6.00724 136.27 6.23466 136.33 6.41059 136.411C6.76673 136.566 7.08856 136.819 7.27735 137.197C7.38464 137.398 7.43612 137.647 7.43612 137.943C7.43612 138.238 7.38464 138.505 7.28594 138.732C7.14433 139.054 6.90833 139.311 6.57364 139.504C6.04586 139.809 5.17481 139.959 3.95619 139.963H3.91758C2.67751 139.963 1.80217 139.817 1.29155 139.521C0.956857 139.328 0.720858 139.066 0.579259 138.741C0.484858 138.535 0.433368 138.298 0.429077 138.028V137.878H2.27416V137.917C2.27416 138.097 2.31278 138.222 2.39002 138.295C2.47155 138.376 2.60456 138.44 2.78478 138.479C3.02507 138.531 3.40267 138.556 3.91758 138.556H3.95619C4.45394 138.556 4.82296 138.531 5.06325 138.479C5.43227 138.397 5.60819 138.23 5.59103 137.986C5.57816 137.844 5.50092 137.754 5.36361 137.707C5.2306 137.655 5.15336 137.638 4.99888 137.625L3.92616 137.565C3.53568 137.553 3.20529 137.539 2.93925 137.523C2.67322 137.501 2.40289 137.471 2.12827 137.424C1.85795 137.377 1.63053 137.317 1.45031 137.235C1.09417 137.076 0.776642 136.81 0.58784 136.45C0.480568 136.249 0.429077 136 0.429077 135.7C0.429077 135.396 0.480568 135.133 0.579259 134.91C0.720858 134.589 0.956857 134.331 1.29155 134.139C1.80217 133.842 2.67751 133.692 3.91758 133.692H3.95619C5.19626 133.692 6.07161 133.842 6.58223 134.139C6.91692 134.331 7.15292 134.589 7.29452 134.91C7.38888 135.121 7.44044 135.361 7.44469 135.622ZM39.9953 138.295C39.725 138.985 39.2229 139.448 38.5536 139.675C38.2232 139.791 37.8884 139.869 37.5495 139.911C37.2105 139.959 36.8372 139.975 36.4209 139.972C35.6014 139.984 34.9449 139.899 34.2798 139.663C33.6233 139.426 33.117 138.951 32.8423 138.277C32.6793 137.892 32.5978 137.415 32.5978 136.845C32.5978 136.275 32.6793 135.798 32.8423 135.412C33.1127 134.73 33.6233 134.259 34.2798 134.023C34.9449 133.787 35.6014 133.705 36.4209 133.719C37.2405 133.705 37.8927 133.787 38.5493 134.023C39.2144 134.259 39.725 134.73 39.9953 135.412C40.1584 135.803 40.2399 136.287 40.2356 136.862C40.2313 137.437 40.1541 137.913 39.9953 138.295ZM38.2746 136.056C38.1588 135.764 37.9571 135.537 37.6696 135.374C37.3864 135.211 36.9702 135.129 36.4209 135.129C35.4212 135.129 34.8033 135.438 34.5673 136.056C34.4858 136.236 34.4429 136.497 34.4429 136.845C34.4429 137.192 34.4858 137.454 34.5673 137.634C34.8033 138.247 35.4212 138.556 36.4209 138.556C36.9745 138.556 37.3907 138.479 37.6782 138.325C37.9657 138.17 38.163 137.947 38.2746 137.659C38.3519 137.479 38.3905 137.214 38.3905 136.866C38.3905 136.515 38.3519 136.245 38.2746 136.056ZM70.0443 139.855C69.6968 139.937 69.2976 139.98 68.8471 139.98C67.8559 139.98 67.0836 139.765 66.53 139.336C66.1653 139.062 65.895 138.711 65.7191 138.286C65.5431 137.87 65.4573 137.389 65.4573 136.836V133.877H67.238V136.836C67.238 137.269 67.3324 137.608 67.4483 137.818C67.5684 138.028 67.8087 138.187 67.9632 138.26C68.0447 138.295 68.1477 138.32 68.2764 138.342C68.4052 138.363 68.5039 138.372 68.5682 138.376C68.6369 138.38 68.7313 138.38 68.8471 138.38C68.963 138.38 69.0574 138.38 69.1217 138.376C69.1904 138.372 69.2891 138.363 69.4135 138.342C69.6667 138.303 69.7912 138.243 69.9928 138.093C70.1988 137.938 70.2932 137.741 70.3747 137.411C70.4176 137.244 70.439 137.055 70.439 136.836V133.877H72.224V136.836C72.224 137.389 72.1382 137.87 71.9666 138.277C71.7907 138.711 71.5247 139.066 71.1685 139.336C70.8596 139.576 70.4863 139.748 70.0443 139.855ZM99.4452 138.38H103.595V139.804H97.6606V133.877H99.4452V138.38ZM162.787 135.622V135.772H160.942V135.747C160.942 135.558 160.904 135.429 160.826 135.361C160.745 135.279 160.607 135.215 160.423 135.177C160.183 135.125 159.805 135.099 159.29 135.095H159.209C158.698 135.099 158.329 135.129 158.093 135.185C157.741 135.275 157.582 135.438 157.617 135.682C157.639 135.816 157.715 135.906 157.853 135.945C157.994 135.983 158.063 135.996 158.218 136.017L159.269 136.081C159.668 136.086 159.998 136.099 160.264 136.12C160.535 136.141 160.805 136.176 161.075 136.223C161.35 136.27 161.577 136.33 161.753 136.411C162.109 136.566 162.431 136.819 162.62 137.197C162.727 137.398 162.779 137.647 162.779 137.943C162.779 138.238 162.727 138.505 162.629 138.732C162.487 139.054 162.251 139.311 161.916 139.504C161.389 139.809 160.517 139.959 159.299 139.963H159.26C158.02 139.963 157.145 139.817 156.634 139.521C156.299 139.328 156.063 139.066 155.922 138.741C155.828 138.535 155.776 138.298 155.772 138.028V137.878H157.617V137.917C157.617 138.097 157.655 138.222 157.732 138.295C157.814 138.376 157.947 138.44 158.128 138.479C158.368 138.531 158.745 138.556 159.26 138.556H159.299C159.797 138.556 160.166 138.531 160.406 138.479C160.775 138.397 160.951 138.23 160.934 137.986C160.921 137.844 160.844 137.754 160.706 137.707C160.573 137.655 160.496 137.638 160.342 137.625L159.269 137.565C158.878 137.553 158.548 137.539 158.282 137.523C158.016 137.501 157.745 137.471 157.471 137.424C157.201 137.377 156.973 137.317 156.793 137.235C156.437 137.076 156.119 136.81 155.931 136.45C155.823 136.249 155.772 136 155.772 135.7C155.772 135.396 155.823 135.133 155.922 134.91C156.063 134.589 156.299 134.331 156.634 134.139C157.145 133.842 158.02 133.692 159.26 133.692H159.299C160.539 133.692 161.414 133.842 161.925 134.139C162.259 134.331 162.495 134.589 162.637 134.91C162.732 135.121 162.783 135.361 162.787 135.622ZM194.231 135.297H189.953V136.125H193.883V137.548H189.953V138.38H194.231V139.804H188.168V133.877H194.231V135.297ZM224.319 139.804L223.555 138.252H221.452V139.804H219.667V133.877H224.117C224.413 133.877 224.696 133.933 224.967 134.044C225.494 134.268 225.914 134.683 226.138 135.211C226.361 135.747 226.361 136.377 226.138 136.914C226.026 137.175 225.867 137.407 225.662 137.608C225.567 137.707 225.464 137.797 225.353 137.87L226.297 139.804H224.319ZM221.452 135.297V136.828H223.756C223.966 136.828 224.147 136.755 224.297 136.605C224.448 136.455 224.52 136.275 224.52 136.065C224.52 135.854 224.443 135.674 224.293 135.524C224.143 135.374 223.966 135.297 223.756 135.297H221.452ZM256.505 133.877H258.491L255.591 139.804H253.78L250.905 133.877H252.883L254.685 137.608L256.505 133.877ZM285.292 139.804H283.507V133.877H285.292V139.804ZM316.328 137.548H318.211C318.173 137.836 318.104 138.084 318.014 138.295C317.744 138.976 317.242 139.435 316.573 139.671C316.242 139.787 315.907 139.869 315.569 139.907C315.23 139.95 314.856 139.972 314.44 139.972C313.62 139.972 312.964 139.899 312.299 139.658C311.642 139.418 311.136 138.942 310.861 138.268C310.698 137.883 310.617 137.407 310.617 136.836C310.617 136.266 310.698 135.79 310.861 135.404C311.131 134.722 311.642 134.25 312.299 134.014C312.964 133.779 313.62 133.697 314.44 133.71C315.26 133.697 315.911 133.779 316.568 134.014C317.233 134.25 317.744 134.722 318.014 135.404C318.096 135.61 318.164 135.85 318.211 136.125H316.319C316.306 136.095 316.298 136.068 316.294 136.043C316.178 135.751 315.976 135.524 315.689 135.366C315.405 135.202 314.989 135.121 314.44 135.121C313.44 135.121 312.822 135.429 312.586 136.043C312.505 136.223 312.461 136.489 312.461 136.836C312.461 137.184 312.505 137.445 312.586 137.625C312.822 138.247 313.44 138.556 314.44 138.556C314.993 138.556 315.41 138.479 315.697 138.32C315.985 138.162 316.182 137.938 316.294 137.651C316.306 137.621 316.315 137.587 316.328 137.548ZM349.565 135.297H345.287V136.125H349.218V137.548H345.287V138.38H349.565V139.804H343.502V133.877H349.565V135.297ZM381.841 135.622V135.772H379.996V135.747C379.996 135.558 379.957 135.429 379.88 135.361C379.798 135.279 379.661 135.215 379.477 135.177C379.236 135.125 378.859 135.099 378.344 135.095H378.262C377.752 135.099 377.382 135.129 377.147 135.185C376.794 135.275 376.636 135.438 376.671 135.682C376.692 135.816 376.769 135.906 376.906 135.945C377.048 135.983 377.117 135.996 377.271 136.017L378.322 136.081C378.721 136.086 379.052 136.099 379.318 136.12C379.588 136.141 379.858 136.176 380.129 136.223C380.403 136.27 380.631 136.33 380.807 136.411C381.163 136.566 381.485 136.819 381.674 137.197C381.781 137.398 381.832 137.647 381.832 137.943C381.832 138.238 381.781 138.505 381.682 138.732C381.54 139.054 381.305 139.311 380.97 139.504C380.442 139.809 379.571 139.959 378.352 139.963H378.314C377.073 139.963 376.198 139.817 375.688 139.521C375.353 139.328 375.117 139.066 374.975 138.741C374.881 138.535 374.83 138.298 374.825 138.028V137.878H376.671V137.917C376.671 138.097 376.709 138.222 376.786 138.295C376.868 138.376 377.001 138.44 377.181 138.479C377.421 138.531 377.799 138.556 378.314 138.556H378.352C378.85 138.556 379.219 138.531 379.459 138.479C379.828 138.397 380.004 138.23 379.987 137.986C379.974 137.844 379.897 137.754 379.76 137.707C379.627 137.655 379.549 137.638 379.395 137.625L378.322 137.565C377.932 137.553 377.601 137.539 377.336 137.523C377.069 137.501 376.799 137.471 376.524 137.424C376.254 137.377 376.027 137.317 375.847 137.235C375.49 137.076 375.173 136.81 374.984 136.45C374.876 136.249 374.825 136 374.825 135.7C374.825 135.396 374.876 135.133 374.975 134.91C375.117 134.589 375.353 134.331 375.688 134.139C376.198 133.842 377.073 133.692 378.314 133.692H378.352C379.593 133.692 380.468 133.842 380.978 134.139C381.313 134.331 381.549 134.589 381.691 134.91C381.785 135.121 381.836 135.361 381.841 135.622Z" fill="#F0D64E"/>
</g>
</g>
<defs>
<clipPath id="clip0_58_4">
<rect width="383" height="142" fill="white"/>
</clipPath>
</defs>
</svg>
